<svg xmlns="http://www.w3.org/2000/svg" viewBox="0 43.599998474121094 898.2000122070312 182.19000244140625" data-asc="1.036" width="898.2000122070312" height="182.19000244140625"><defs/><g><g fill="#000000"><g transform="translate(0, 0)"><path d="M0 51.80L0 43.60L7.80 43.60L7.80 51.80L0 51.80Z"/></g><g transform="translate(0, 86.64500000000001)"><path d="M0 51.80L0 43.60L7.80 43.60L7.80 51.80L0 51.80ZM93.90 39.30L91.40 39.30L91.40 49.30Q89.20 50.55 84.98 51.53Q80.75 52.50 75.85 52.50Q66.50 52.50 61.20 47.58Q55.90 42.65 55.90 32.35Q55.90 21.80 61.18 17Q66.45 12.20 76.25 12.20Q81 12.20 85.15 13.20Q89.30 14.20 91.40 15.45L91.40 27.40L78.90 27.40L78.90 25.05Q78.90 22.95 78.03 22.03Q77.15 21.10 75.25 21.10Q73.35 21.10 72.48 22.03Q71.60 22.95 71.60 25.05L71.60 39.65Q71.60 41.75 72.48 42.68Q73.35 43.60 75.25 43.60Q77.15 43.60 78.03 42.68Q78.90 41.75 78.90 39.65L78.90 39.30L76.20 39.30L76.20 31.85L93.90 31.85L93.90 39.30ZM128.10 43.60L128.10 51.80L114.40 51.80L114.40 47.90Q110.80 52.50 105.40 52.50Q101.25 52.50 99.18 49.90Q97.10 47.30 97.10 42.75L97.10 32.20L94.90 32.20L94.90 24.00L108.60 24.00L108.60 40.40Q108.60 42.05 109.33 42.83Q110.05 43.60 111.50 43.60Q112.95 43.60 113.68 42.83Q114.40 42.05 114.40 40.40L114.40 32.20L111.70 32.20L111.70 24.00L125.90 24.00L125.90 43.60L128.10 43.60ZM131.90 21.25L131.90 12.90L142.10 12.90L142.10 21.25L131.90 21.25M129.50 51.80L129.50 43.60L131.70 43.60L131.70 32.20L129.50 32.20L129.50 24.00L143.20 24.00L143.20 43.60L145.40 43.60L145.40 51.80L129.50 51.80ZM146.80 51.85L146.80 43.60L149.00 43.60L149.00 21.10L146.80 21.10L146.80 12.90L160.50 12.90L160.50 43.60L162.70 43.60L162.70 51.85L146.80 51.85ZM197.50 43.60L197.50 51.80L181.70 51.80L181.70 43.60L183.80 43.60L183.80 35.40Q183.80 33.75 183.10 32.98Q182.40 32.20 181.00 32.20Q178.00 32.20 178.00 35.40L178.00 43.60L180.10 43.60L180.10 51.80L164.30 51.80L164.30 43.60L166.50 43.60L166.50 21.10L164.30 21.10L164.30 12.90L178.00 12.90L178.00 27.90Q179.85 25.60 182.00 24.45Q184.15 23.30 187.00 23.30Q191.15 23.30 193.23 25.90Q195.30 28.50 195.30 33.05L195.30 43.60L197.50 43.60ZM214.00 52.50Q206.90 52.50 202.90 48.78Q198.90 45.05 198.90 37.90Q198.90 30.75 202.90 27.03Q206.90 23.30 214.00 23.30Q221.05 23.30 224.18 26.98Q227.30 30.65 227.30 36.10L227.30 39.70L211.10 39.70L211.10 40Q211.10 41.85 212.20 42.73Q213.30 43.60 215.85 43.60Q218.90 43.60 221.65 43.15Q224.40 42.70 226.45 42L226.45 50.00Q224.70 50.95 221.33 51.73Q217.95 52.50 214.00 52.50M216.90 34.20L216.90 33.60Q216.90 31.90 216.18 31.15Q215.45 30.40 214.00 30.40Q212.55 30.40 211.83 31.18Q211.10 31.95 211.10 33.60L211.10 34.20L216.90 34.20ZM250.15 23.30Q251.15 23.30 252.05 23.50Q252.95 23.70 253.55 24.00L253.55 33.55Q251.50 32.70 249.15 32.70Q246.00 32.70 244.30 34.35Q242.60 36 242.60 39.25L242.60 43.60L247.10 43.60L247.10 51.80L228.90 51.80L228.90 43.60L231.10 43.60L231.10 32.20L228.90 32.20L228.90 24.00L242.60 24.00L242.60 27.65Q244.00 25.55 245.80 24.43Q247.60 23.30 250.15 23.30ZM305.65 43.60L305.65 51.80L289.85 51.80L289.85 43.60L291.95 43.60L291.95 35.40Q291.95 33.75 291.25 32.98Q290.55 32.20 289.15 32.20Q286.15 32.20 286.15 35.40L286.15 43.60L288.25 43.60L288.25 51.80L272.55 51.80L272.55 43.60L274.65 43.60L274.65 35.40Q274.65 33.75 273.95 32.98Q273.25 32.20 271.85 32.20Q268.85 32.20 268.85 35.40L268.85 43.60L270.95 43.60L270.95 51.80L255.15 51.80L255.15 43.60L257.35 43.60L257.35 32.20L255.15 32.20L255.15 24.00L268.85 24.00L268.85 27.90Q272.45 23.30 277.85 23.30Q280.90 23.30 282.83 24.73Q284.75 26.15 285.55 28.75Q287.35 26.15 289.68 24.75Q292 23.35 295.15 23.35Q299.30 23.35 301.38 25.95Q303.45 28.55 303.45 33.10L303.45 43.60L305.65 43.60ZM322.15 52.50Q315.05 52.50 311.05 48.78Q307.05 45.05 307.05 37.90Q307.05 30.75 311.05 27.03Q315.05 23.30 322.15 23.30Q329.20 23.30 332.33 26.98Q335.45 30.65 335.45 36.10L335.45 39.70L319.25 39.70L319.25 40Q319.25 41.85 320.35 42.73Q321.45 43.60 324 43.60Q327.05 43.60 329.80 43.15Q332.55 42.70 334.60 42L334.60 50.00Q332.85 50.95 329.48 51.73Q326.10 52.50 322.15 52.50M325.05 34.20L325.05 33.60Q325.05 31.90 324.33 31.15Q323.60 30.40 322.15 30.40Q320.70 30.40 319.98 31.18Q319.25 31.95 319.25 33.60L319.25 34.20L325.05 34.20ZM352.05 43.60L354.55 43.60L354.55 21.10L352.05 21.10L352.05 12.90L375 12.90Q381.45 12.90 384.85 15.55Q388.25 18.20 388.25 24.15Q388.25 27.50 386.90 29.95Q385.55 32.40 383.05 33.35L383.10 33.85Q387.90 34.60 387.90 39.75L387.90 43.60L390.25 43.60L390.25 51.80L374.40 51.80L374.40 40.05Q374.40 38.10 373.82 37.10Q373.25 36.10 372.03 35.75Q370.80 35.40 368.55 35.40L368.55 43.60L371.85 43.60L371.85 51.80L352.05 51.80L352.05 43.60M371.25 29.30Q372.70 29.30 373.43 28.53Q374.15 27.75 374.15 26.10L374.15 24.30Q374.15 22.65 373.43 21.88Q372.70 21.10 371.25 21.10L368.55 21.10L368.55 29.30L371.25 29.30ZM421.10 43.60L421.10 51.80L407.90 51.80L407.90 48.40Q406.80 50.00 404.82 51.25Q402.85 52.50 400 52.50Q396.25 52.50 394.10 50.50Q391.95 48.50 391.95 44.85Q391.95 35.40 408 35.15Q407.85 33.45 406.70 32.83Q405.55 32.20 402.80 32.20Q400.55 32.20 397.98 32.68Q395.40 33.15 393.25 33.95L393.25 24.75Q395.90 24.10 399 23.70Q402.10 23.30 405.05 23.30Q412.50 23.30 415.70 26.00Q418.90 28.70 418.90 34.35L418.90 43.60L421.10 43.60M407.90 40.10Q405.65 40.10 404.43 40.70Q403.20 41.30 403.20 42.70Q403.20 43.55 403.73 44.08Q404.25 44.60 405.20 44.60Q406.50 44.60 407.20 43.50Q407.90 42.40 407.90 40.40L407.90 40.10ZM422.70 43.60L424.90 43.60L424.90 32.20L422.70 32.20L422.70 24.00L425 24.00Q425 17.90 427.98 15.05Q430.95 12.20 436.65 12.20Q439.40 12.20 441.57 12.60Q443.75 13 444.75 13.50L444.75 21.35Q442.10 21.10 439.85 21.10Q437.90 21.10 437.15 21.75Q436.40 22.40 436.40 24.00L440.30 24.00L440.30 32.20L436.40 32.20L436.40 43.60L440.30 43.60L440.30 51.80L422.70 51.80L422.70 43.60ZM441.90 43.60L444.10 43.60L444.10 32.20L441.90 32.20L441.90 24.00L444.20 24.00Q444.20 17.90 447.18 15.05Q450.15 12.20 455.85 12.20Q458.60 12.20 460.77 12.60Q462.95 13 463.95 13.50L463.95 21.35Q461.30 21.10 459.05 21.10Q457.10 21.10 456.35 21.75Q455.60 22.40 455.60 24.00L459.50 24.00L459.50 32.20L455.60 32.20L455.60 43.60L459.50 43.60L459.50 51.80L441.90 51.80L441.90 43.60ZM490.25 43.60L490.25 51.80L477.05 51.80L477.05 48.40Q475.95 50.00 473.97 51.25Q472 52.50 469.15 52.50Q465.40 52.50 463.25 50.50Q461.10 48.50 461.10 44.85Q461.10 35.40 477.15 35.15Q477 33.45 475.85 32.83Q474.70 32.20 471.95 32.20Q469.70 32.20 467.13 32.68Q464.55 33.15 462.40 33.95L462.40 24.75Q465.05 24.10 468.15 23.70Q471.25 23.30 474.20 23.30Q481.65 23.30 484.85 26.00Q488.05 28.70 488.05 34.35L488.05 43.60L490.25 43.60M477.05 40.10Q474.80 40.10 473.57 40.70Q472.35 41.30 472.35 42.70Q472.35 43.55 472.88 44.08Q473.40 44.60 474.35 44.60Q475.65 44.60 476.35 43.50Q477.05 42.40 477.05 40.40L477.05 40.10ZM506.75 52.50Q499.65 52.50 495.65 48.78Q491.65 45.05 491.65 37.90Q491.65 30.75 495.65 27.03Q499.65 23.30 506.75 23.30Q513.80 23.30 516.92 26.98Q520.05 30.65 520.05 36.10L520.05 39.70L503.85 39.70L503.85 40Q503.85 41.85 504.95 42.73Q506.05 43.60 508.60 43.60Q511.65 43.60 514.40 43.15Q517.15 42.70 519.20 42L519.20 50.00Q517.45 50.95 514.08 51.73Q510.70 52.50 506.75 52.50M509.65 34.20L509.65 33.60Q509.65 31.90 508.93 31.15Q508.20 30.40 506.75 30.40Q505.30 30.40 504.57 31.18Q503.85 31.95 503.85 33.60L503.85 34.20L509.65 34.20ZM521.55 51.85L521.55 43.60L523.75 43.60L523.75 21.10L521.55 21.10L521.55 12.90L535.25 12.90L535.25 43.60L537.45 43.60L537.45 51.85L521.55 51.85ZM539.05 51.85L539.05 43.60L541.25 43.60L541.25 21.10L539.05 21.10L539.05 12.90L552.75 12.90L552.75 43.60L554.95 43.60L554.95 51.85L539.05 51.85ZM558.95 21.25L558.95 12.90L569.15 12.90L569.15 21.25L558.95 21.25M556.55 51.80L556.55 43.60L558.75 43.60L558.75 32.20L556.55 32.20L556.55 24.00L570.25 24.00L570.25 43.60L572.45 43.60L572.45 51.80L556.55 51.80ZM656.65 39.30L654.15 39.30L654.15 49.30Q651.95 50.55 647.72 51.53Q643.50 52.50 638.60 52.50Q629.25 52.50 623.95 47.58Q618.65 42.65 618.65 32.35Q618.65 21.80 623.92 17Q629.20 12.20 639.00 12.20Q643.75 12.20 647.90 13.20Q652.05 14.20 654.15 15.45L654.15 27.40L641.65 27.40L641.65 25.05Q641.65 22.95 640.77 22.03Q639.90 21.10 638.00 21.10Q636.10 21.10 635.22 22.03Q634.35 22.95 634.35 25.05L634.35 39.65Q634.35 41.75 635.22 42.68Q636.10 43.60 638.00 43.60Q639.90 43.60 640.77 42.68Q641.65 41.75 641.65 39.65L641.65 39.30L638.95 39.30L638.95 31.85L656.65 31.85L656.65 39.30ZM690.85 43.60L690.85 51.80L677.15 51.80L677.15 47.90Q673.55 52.50 668.15 52.50Q664 52.50 661.92 49.90Q659.85 47.30 659.85 42.75L659.85 32.20L657.65 32.20L657.65 24.00L671.35 24.00L671.35 40.40Q671.35 42.05 672.07 42.83Q672.80 43.60 674.25 43.60Q675.70 43.60 676.42 42.83Q677.15 42.05 677.15 40.40L677.15 32.20L674.45 32.20L674.45 24.00L688.65 24.00L688.65 43.60L690.85 43.60ZM694.65 21.25L694.65 12.90L704.85 12.90L704.85 21.25L694.65 21.25M692.25 51.80L692.25 43.60L694.45 43.60L694.45 32.20L692.25 32.20L692.25 24.00L705.95 24.00L705.95 43.60L708.15 43.60L708.15 51.80L692.25 51.80ZM709.55 51.85L709.55 43.60L711.75 43.60L711.75 21.10L709.55 21.10L709.55 12.90L723.25 12.90L723.25 43.60L725.45 43.60L725.45 51.85L709.55 51.85ZM760.25 43.60L760.25 51.80L744.45 51.80L744.45 43.60L746.55 43.60L746.55 35.40Q746.55 33.75 745.85 32.98Q745.15 32.20 743.75 32.20Q740.75 32.20 740.75 35.40L740.75 43.60L742.85 43.60L742.85 51.80L727.05 51.80L727.05 43.60L729.25 43.60L729.25 21.10L727.05 21.10L727.05 12.90L740.75 12.90L740.75 27.90Q742.60 25.60 744.75 24.45Q746.90 23.30 749.75 23.30Q753.90 23.30 755.97 25.90Q758.05 28.50 758.05 33.05L758.05 43.60L760.25 43.60ZM776.75 52.50Q769.65 52.50 765.65 48.78Q761.65 45.05 761.65 37.90Q761.65 30.75 765.65 27.03Q769.65 23.30 776.75 23.30Q783.80 23.30 786.92 26.98Q790.05 30.65 790.05 36.10L790.05 39.70L773.85 39.70L773.85 40Q773.85 41.85 774.95 42.73Q776.05 43.60 778.60 43.60Q781.65 43.60 784.40 43.15Q787.15 42.70 789.20 42L789.20 50.00Q787.45 50.95 784.07 51.73Q780.70 52.50 776.75 52.50M779.65 34.20L779.65 33.60Q779.65 31.90 778.92 31.15Q778.20 30.40 776.75 30.40Q775.30 30.40 774.57 31.18Q773.85 31.95 773.85 33.60L773.85 34.20L779.65 34.20ZM812.90 23.30Q813.90 23.30 814.80 23.50Q815.70 23.70 816.30 24.00L816.30 33.55Q814.25 32.70 811.90 32.70Q808.75 32.70 807.05 34.35Q805.35 36 805.35 39.25L805.35 43.60L809.85 43.60L809.85 51.80L791.65 51.80L791.65 43.60L793.85 43.60L793.85 32.20L791.65 32.20L791.65 24.00L805.35 24.00L805.35 27.65Q806.75 25.55 808.55 24.43Q810.35 23.30 812.90 23.30ZM868.40 43.60L868.40 51.80L852.60 51.80L852.60 43.60L854.70 43.60L854.70 35.40Q854.70 33.75 854.00 32.98Q853.30 32.20 851.90 32.20Q848.90 32.20 848.90 35.40L848.90 43.60L851.00 43.60L851.00 51.80L835.30 51.80L835.30 43.60L837.40 43.60L837.40 35.40Q837.40 33.75 836.70 32.98Q836.00 32.20 834.60 32.20Q831.60 32.20 831.60 35.40L831.60 43.60L833.70 43.60L833.70 51.80L817.90 51.80L817.90 43.60L820.10 43.60L820.10 32.20L817.90 32.20L817.90 24.00L831.60 24.00L831.60 27.90Q835.20 23.30 840.60 23.30Q843.65 23.30 845.57 24.73Q847.50 26.15 848.30 28.75Q850.10 26.15 852.42 24.75Q854.75 23.35 857.90 23.35Q862.05 23.35 864.12 25.95Q866.20 28.55 866.20 33.10L866.20 43.60L868.40 43.60ZM884.90 52.50Q877.80 52.50 873.80 48.78Q869.80 45.05 869.80 37.90Q869.80 30.75 873.80 27.03Q877.80 23.30 884.90 23.30Q891.95 23.30 895.07 26.98Q898.20 30.65 898.20 36.10L898.20 39.70L882.00 39.70L882.00 40Q882.00 41.85 883.10 42.73Q884.20 43.60 886.75 43.60Q889.80 43.60 892.55 43.15Q895.30 42.70 897.35 42L897.35 50.00Q895.60 50.95 892.22 51.73Q888.85 52.50 884.90 52.50M887.80 34.20L887.80 33.60Q887.80 31.90 887.07 31.15Q886.35 30.40 884.90 30.40Q883.45 30.40 882.72 31.18Q882.00 31.95 882.00 33.60L882.00 34.20L887.80 34.20Z"/></g><g transform="translate(0, 173.29000000000002)"><path d="M0 43.60L2.50 43.60L2.50 21.10L0 21.10L0 12.90L22.95 12.90Q29.40 12.90 32.80 15.55Q36.20 18.20 36.20 24.15Q36.20 27.50 34.85 29.95Q33.50 32.40 31 33.35L31.05 33.85Q35.85 34.60 35.85 39.75L35.85 43.60L38.20 43.60L38.20 51.80L22.35 51.80L22.35 40.05Q22.35 38.10 21.78 37.10Q21.20 36.10 19.98 35.75Q18.75 35.40 16.50 35.40L16.50 43.60L19.80 43.60L19.80 51.80L0 51.80L0 43.60M19.20 29.30Q20.65 29.30 21.38 28.53Q22.10 27.75 22.10 26.10L22.10 24.30Q22.10 22.65 21.38 21.88Q20.65 21.10 19.20 21.10L16.50 21.10L16.50 29.30L19.20 29.30ZM69.05 43.60L69.05 51.80L55.85 51.80L55.85 48.40Q54.75 50.00 52.77 51.25Q50.80 52.50 47.95 52.50Q44.20 52.50 42.05 50.50Q39.90 48.50 39.90 44.85Q39.90 35.40 55.95 35.15Q55.80 33.45 54.65 32.83Q53.50 32.20 50.75 32.20Q48.50 32.20 45.92 32.68Q43.35 33.15 41.20 33.95L41.20 24.75Q43.85 24.10 46.95 23.70Q50.05 23.30 53 23.30Q60.45 23.30 63.65 26.00Q66.85 28.70 66.85 34.35L66.85 43.60L69.05 43.60M55.85 40.10Q53.60 40.10 52.38 40.70Q51.15 41.30 51.15 42.70Q51.15 43.55 51.67 44.08Q52.20 44.60 53.15 44.60Q54.45 44.60 55.15 43.50Q55.85 42.40 55.85 40.40L55.85 40.10ZM70.65 43.60L72.85 43.60L72.85 32.20L70.65 32.20L70.65 24.00L72.95 24.00Q72.95 17.90 75.92 15.05Q78.90 12.20 84.60 12.20Q87.35 12.20 89.53 12.60Q91.70 13 92.70 13.50L92.70 21.35Q90.05 21.10 87.80 21.10Q85.85 21.10 85.10 21.75Q84.35 22.40 84.35 24.00L88.25 24.00L88.25 32.20L84.35 32.20L84.35 43.60L88.25 43.60L88.25 51.80L70.65 51.80L70.65 43.60ZM89.85 43.60L92.05 43.60L92.05 32.20L89.85 32.20L89.85 24.00L92.15 24.00Q92.15 17.90 95.13 15.05Q98.10 12.20 103.80 12.20Q106.55 12.20 108.73 12.60Q110.90 13 111.90 13.50L111.90 21.35Q109.25 21.10 107 21.10Q105.05 21.10 104.30 21.75Q103.55 22.40 103.55 24.00L107.45 24.00L107.45 32.20L103.55 32.20L103.55 43.60L107.45 43.60L107.45 51.80L89.85 51.80L89.85 43.60ZM138.20 43.60L138.20 51.80L125 51.80L125 48.40Q123.90 50.00 121.93 51.25Q119.95 52.50 117.10 52.50Q113.35 52.50 111.20 50.50Q109.05 48.50 109.05 44.85Q109.05 35.40 125.10 35.15Q124.95 33.45 123.80 32.83Q122.65 32.20 119.90 32.20Q117.65 32.20 115.08 32.68Q112.50 33.15 110.35 33.95L110.35 24.75Q113 24.10 116.10 23.70Q119.20 23.30 122.15 23.30Q129.60 23.30 132.80 26.00Q136 28.70 136 34.35L136 43.60L138.20 43.60M125 40.10Q122.75 40.10 121.53 40.70Q120.30 41.30 120.30 42.70Q120.30 43.55 120.83 44.08Q121.35 44.60 122.30 44.60Q123.60 44.60 124.30 43.50Q125 42.40 125 40.40L125 40.10ZM154.70 52.50Q147.60 52.50 143.60 48.78Q139.60 45.05 139.60 37.90Q139.60 30.75 143.60 27.03Q147.60 23.30 154.70 23.30Q161.75 23.30 164.88 26.98Q168 30.65 168 36.10L168 39.70L151.80 39.70L151.80 40Q151.80 41.85 152.90 42.73Q154 43.60 156.55 43.60Q159.60 43.60 162.35 43.15Q165.10 42.70 167.15 42L167.15 50.00Q165.40 50.95 162.03 51.73Q158.65 52.50 154.70 52.50M157.60 34.20L157.60 33.60Q157.60 31.90 156.88 31.15Q156.15 30.40 154.70 30.40Q153.25 30.40 152.53 31.18Q151.80 31.95 151.80 33.60L151.80 34.20L157.60 34.20ZM169.50 51.85L169.50 43.60L171.70 43.60L171.70 21.10L169.50 21.10L169.50 12.90L183.20 12.90L183.20 43.60L185.40 43.60L185.40 51.85L169.50 51.85ZM187.00 51.85L187.00 43.60L189.20 43.60L189.20 21.10L187.00 21.10L187.00 12.90L200.70 12.90L200.70 43.60L202.90 43.60L202.90 51.85L187.00 51.85ZM206.90 21.25L206.90 12.90L217.10 12.90L217.10 21.25L206.90 21.25M204.50 51.80L204.50 43.60L206.70 43.60L206.70 32.20L204.50 32.20L204.50 24.00L218.20 24.00L218.20 43.60L220.40 43.60L220.40 51.80L204.50 51.80ZM349.60 39.30L347.10 39.30L347.10 49.30Q344.90 50.55 340.68 51.53Q336.45 52.50 331.55 52.50Q322.20 52.50 316.90 47.58Q311.60 42.65 311.60 32.35Q311.60 21.80 316.88 17Q322.15 12.20 331.95 12.20Q336.70 12.20 340.85 13.20Q345.00 14.20 347.10 15.45L347.10 27.40L334.60 27.40L334.60 25.05Q334.60 22.95 333.73 22.03Q332.85 21.10 330.95 21.10Q329.05 21.10 328.18 22.03Q327.30 22.95 327.30 25.05L327.30 39.65Q327.30 41.75 328.18 42.68Q329.05 43.60 330.95 43.60Q332.85 43.60 333.73 42.68Q334.60 41.75 334.60 39.65L334.60 39.30L331.90 39.30L331.90 31.85L349.60 31.85L349.60 39.30ZM383.80 43.60L383.80 51.80L370.10 51.80L370.10 47.90Q366.50 52.50 361.10 52.50Q356.95 52.50 354.88 49.90Q352.80 47.30 352.80 42.75L352.80 32.20L350.60 32.20L350.60 24.00L364.30 24.00L364.30 40.40Q364.30 42.05 365.03 42.83Q365.75 43.60 367.20 43.60Q368.65 43.60 369.38 42.83Q370.10 42.05 370.10 40.40L370.10 32.20L367.40 32.20L367.40 24.00L381.60 24.00L381.60 43.60L383.80 43.60ZM387.60 21.25L387.60 12.90L397.80 12.90L397.80 21.25L387.60 21.25M385.20 51.80L385.20 43.60L387.40 43.60L387.40 32.20L385.20 32.20L385.20 24.00L398.90 24.00L398.90 43.60L401.10 43.60L401.10 51.80L385.20 51.80ZM402.50 51.85L402.50 43.60L404.70 43.60L404.70 21.10L402.50 21.10L402.50 12.90L416.20 12.90L416.20 43.60L418.40 43.60L418.40 51.85L402.50 51.85ZM453.20 43.60L453.20 51.80L437.40 51.80L437.40 43.60L439.50 43.60L439.50 35.40Q439.50 33.75 438.80 32.98Q438.10 32.20 436.70 32.20Q433.70 32.20 433.70 35.40L433.70 43.60L435.80 43.60L435.80 51.80L420.00 51.80L420.00 43.60L422.20 43.60L422.20 21.10L420.00 21.10L420.00 12.90L433.70 12.90L433.70 27.90Q435.55 25.60 437.70 24.45Q439.85 23.30 442.70 23.30Q446.85 23.30 448.93 25.90Q451.00 28.50 451.00 33.05L451.00 43.60L453.20 43.60ZM469.70 52.50Q462.60 52.50 458.60 48.78Q454.60 45.05 454.60 37.90Q454.60 30.75 458.60 27.03Q462.60 23.30 469.70 23.30Q476.75 23.30 479.88 26.98Q483.00 30.65 483.00 36.10L483.00 39.70L466.80 39.70L466.80 40Q466.80 41.85 467.90 42.73Q469.00 43.60 471.55 43.60Q474.60 43.60 477.35 43.15Q480.10 42.70 482.15 42L482.15 50.00Q480.40 50.95 477.03 51.73Q473.65 52.50 469.70 52.50M472.60 34.20L472.60 33.60Q472.60 31.90 471.88 31.15Q471.15 30.40 469.70 30.40Q468.25 30.40 467.53 31.18Q466.80 31.95 466.80 33.60L466.80 34.20L472.60 34.20ZM505.85 23.30Q506.85 23.30 507.75 23.50Q508.65 23.70 509.25 24.00L509.25 33.55Q507.20 32.70 504.85 32.70Q501.70 32.70 500.00 34.35Q498.30 36 498.30 39.25L498.30 43.60L502.80 43.60L502.80 51.80L484.60 51.80L484.60 43.60L486.80 43.60L486.80 32.20L484.60 32.20L484.60 24.00L498.30 24.00L498.30 27.65Q499.70 25.55 501.50 24.43Q503.30 23.30 505.85 23.30ZM561.35 43.60L561.35 51.80L545.55 51.80L545.55 43.60L547.65 43.60L547.65 35.40Q547.65 33.75 546.95 32.98Q546.25 32.20 544.85 32.20Q541.85 32.20 541.85 35.40L541.85 43.60L543.95 43.60L543.95 51.80L528.25 51.80L528.25 43.60L530.35 43.60L530.35 35.40Q530.35 33.75 529.65 32.98Q528.95 32.20 527.55 32.20Q524.55 32.20 524.55 35.40L524.55 43.60L526.65 43.60L526.65 51.80L510.85 51.80L510.85 43.60L513.05 43.60L513.05 32.20L510.85 32.20L510.85 24.00L524.55 24.00L524.55 27.90Q528.15 23.30 533.55 23.30Q536.60 23.30 538.53 24.73Q540.45 26.15 541.25 28.75Q543.05 26.15 545.38 24.75Q547.70 23.35 550.85 23.35Q555.00 23.35 557.08 25.95Q559.15 28.55 559.15 33.10L559.15 43.60L561.35 43.60ZM577.85 52.50Q570.75 52.50 566.75 48.78Q562.75 45.05 562.75 37.90Q562.75 30.75 566.75 27.03Q570.75 23.30 577.85 23.30Q584.90 23.30 588.03 26.98Q591.15 30.65 591.15 36.10L591.15 39.70L574.95 39.70L574.95 40Q574.95 41.85 576.05 42.73Q577.15 43.60 579.70 43.60Q582.75 43.60 585.50 43.15Q588.25 42.70 590.30 42L590.30 50.00Q588.55 50.95 585.18 51.73Q581.80 52.50 577.85 52.50M580.75 34.20L580.75 33.60Q580.75 31.90 580.03 31.15Q579.30 30.40 577.85 30.40Q576.40 30.40 575.68 31.18Q574.95 31.95 574.95 33.60L574.95 34.20L580.75 34.20ZM607.75 43.60L610.25 43.60L610.25 21.10L607.75 21.10L607.75 12.90L630.70 12.90Q637.15 12.90 640.55 15.55Q643.95 18.20 643.95 24.15Q643.95 27.50 642.60 29.95Q641.25 32.40 638.75 33.35L638.80 33.85Q643.60 34.60 643.60 39.75L643.60 43.60L645.95 43.60L645.95 51.80L630.10 51.80L630.10 40.05Q630.10 38.10 629.53 37.10Q628.95 36.10 627.73 35.75Q626.50 35.40 624.25 35.40L624.25 43.60L627.55 43.60L627.55 51.80L607.75 51.80L607.75 43.60M626.95 29.30Q628.40 29.30 629.13 28.53Q629.85 27.75 629.85 26.10L629.85 24.30Q629.85 22.65 629.13 21.88Q628.40 21.10 626.95 21.10L624.25 21.10L624.25 29.30L626.95 29.30ZM676.80 43.60L676.80 51.80L663.60 51.80L663.60 48.40Q662.50 50.00 660.53 51.25Q658.55 52.50 655.70 52.50Q651.95 52.50 649.80 50.50Q647.65 48.50 647.65 44.85Q647.65 35.40 663.70 35.15Q663.55 33.45 662.40 32.83Q661.25 32.20 658.50 32.20Q656.25 32.20 653.68 32.68Q651.10 33.15 648.95 33.95L648.95 24.75Q651.60 24.10 654.70 23.70Q657.80 23.30 660.75 23.30Q668.20 23.30 671.40 26.00Q674.60 28.70 674.60 34.35L674.60 43.60L676.80 43.60M663.60 40.10Q661.35 40.10 660.13 40.70Q658.90 41.30 658.90 42.70Q658.90 43.55 659.43 44.08Q659.95 44.60 660.90 44.60Q662.20 44.60 662.90 43.50Q663.60 42.40 663.60 40.40L663.60 40.10ZM678.40 43.60L680.60 43.60L680.60 32.20L678.40 32.20L678.40 24.00L680.70 24.00Q680.70 17.90 683.68 15.05Q686.65 12.20 692.35 12.20Q695.10 12.20 697.28 12.60Q699.45 13 700.45 13.50L700.45 21.35Q697.80 21.10 695.55 21.10Q693.60 21.10 692.85 21.75Q692.10 22.40 692.10 24.00L696.00 24.00L696.00 32.20L692.10 32.20L692.10 43.60L696.00 43.60L696.00 51.80L678.40 51.80L678.40 43.60ZM697.60 43.60L699.80 43.60L699.80 32.20L697.60 32.20L697.60 24.00L699.90 24.00Q699.90 17.90 702.88 15.05Q705.85 12.20 711.55 12.20Q714.30 12.20 716.48 12.60Q718.65 13 719.65 13.50L719.65 21.35Q717.00 21.10 714.75 21.10Q712.80 21.10 712.05 21.75Q711.30 22.40 711.30 24.00L715.20 24.00L715.20 32.20L711.30 32.20L711.30 43.60L715.20 43.60L715.20 51.80L697.60 51.80L697.60 43.60ZM745.95 43.60L745.95 51.80L732.75 51.80L732.75 48.40Q731.65 50.00 729.68 51.25Q727.70 52.50 724.85 52.50Q721.10 52.50 718.95 50.50Q716.80 48.50 716.80 44.85Q716.80 35.40 732.85 35.15Q732.70 33.45 731.55 32.83Q730.40 32.20 727.65 32.20Q725.40 32.20 722.83 32.68Q720.25 33.15 718.10 33.95L718.10 24.75Q720.75 24.10 723.85 23.70Q726.95 23.30 729.90 23.30Q737.35 23.30 740.55 26.00Q743.75 28.70 743.75 34.35L743.75 43.60L745.95 43.60M732.75 40.10Q730.50 40.10 729.28 40.70Q728.05 41.30 728.05 42.70Q728.05 43.55 728.58 44.08Q729.10 44.60 730.05 44.60Q731.35 44.60 732.05 43.50Q732.75 42.40 732.75 40.40L732.75 40.10ZM762.45 52.50Q755.35 52.50 751.35 48.78Q747.35 45.05 747.35 37.90Q747.35 30.75 751.35 27.03Q755.35 23.30 762.45 23.30Q769.50 23.30 772.63 26.98Q775.75 30.65 775.75 36.10L775.75 39.70L759.55 39.70L759.55 40Q759.55 41.85 760.65 42.73Q761.75 43.60 764.30 43.60Q767.35 43.60 770.10 43.15Q772.85 42.70 774.90 42L774.90 50.00Q773.15 50.95 769.78 51.73Q766.40 52.50 762.45 52.50M765.35 34.20L765.35 33.60Q765.35 31.90 764.63 31.15Q763.90 30.40 762.45 30.40Q761.00 30.40 760.28 31.18Q759.55 31.95 759.55 33.60L759.55 34.20L765.35 34.20ZM777.25 51.85L777.25 43.60L779.45 43.60L779.45 21.10L777.25 21.10L777.25 12.90L790.95 12.90L790.95 43.60L793.15 43.60L793.15 51.85L777.25 51.85ZM794.75 51.85L794.75 43.60L796.95 43.60L796.95 21.10L794.75 21.10L794.75 12.90L808.45 12.90L808.45 43.60L810.65 43.60L810.65 51.85L794.75 51.85ZM814.65 21.25L814.65 12.90L824.85 12.90L824.85 21.25L814.65 21.25M812.25 51.80L812.25 43.60L814.45 43.60L814.45 32.20L812.25 32.20L812.25 24.00L825.95 24.00L825.95 43.60L828.15 43.60L828.15 51.80L812.25 51.80Z"/></g></g></g></svg>