<svg version="1.2" xmlns="http://www.w3.org/2000/svg" viewBox="0 0 600 600" width="1080" height="1080">
	<title>wavy</title>
	<style>
		.s0 { opacity: .18;fill: #040606 } 
	</style>
	<g id="g1">
		<g id="group-R5">
			<path id="path1 copy" class="s0" d="m733 418.2c-15.9 0-31.9 2.3-46.8 7q0 0 0 0c-25.3 7.9-54.3 7.9-79.6 0q0 0 0 0c-29.7-9.3-63.8-9.3-93.6 0q0 0 0 0c-25.3 7.9-54.3 7.9-79.6 0-29.7-9.3-63.8-9.3-93.6 0q0 0 0 0c-25.3 7.9-54.3 7.9-79.6 0q0 0 0 0c-29.8-9.3-63.9-9.3-93.6 0-25.3 7.9-54.3 7.9-79.6 0q0 0 0 0c-29.8-9.3-63.9-9.3-93.6 0q0 0 0 0c-25.3 7.9-54.3 7.9-79.6 0q0 0 0 0c-29.8-9.3-63.9-9.3-93.7 0-4.4 1.4-6.4 5-4.4 8.2 1.9 3.1 7.1 4.5 11.5 3.2 25.3-8 54.3-8 79.5-0.1q0 0.1 0 0.1c29.8 9.3 63.9 9.3 93.7 0q0 0 0 0c25.3-8 54.3-8 79.6 0q0 0 0 0c29.7 9.3 63.9 9.3 93.6 0 25.3-8 54.3-8 79.6 0 29.7 9.3 63.9 9.3 93.6 0q0 0 0 0c25.3-8 54.3-8 79.6 0 29.7 9.3 63.8 9.3 93.6 0q0 0 0 0c25.3-8 54.3-8 79.6 0q0 0 0 0c29.8 9.3 63.9 9.3 93.7 0q0-0.1 0-0.1c25.3-7.9 54.3-7.9 79.5 0.1 4.4 1.3 9.6-0.1 11.5-3.2 2-3.2 0-6.8-4.4-8.2-14.9-4.7-30.9-7-46.9-7z"/>
			<path id="path1 copy 2" class="s0" d="m728.1 281.4c-15.9 0-31.9 2.3-46.8 7q0 0-0.1 0c-25.2 7.9-54.2 7.9-79.5 0q0 0 0 0c-29.7-9.3-63.8-9.3-93.6 0q0 0 0 0c-25.3 7.9-54.3 7.9-79.6 0-29.7-9.3-63.8-9.3-93.6 0q0 0 0 0c-25.3 7.9-54.3 7.9-79.6 0q0 0 0 0c-29.8-9.3-63.9-9.3-93.6 0-25.3 7.9-54.3 7.9-79.6 0q0 0-0.1 0c-29.7-9.3-63.8-9.3-93.5 0q-0.1 0-0.1 0c-25.2 7.9-54.2 7.9-79.5 0q0 0 0 0c-29.8-9.3-63.9-9.3-93.7 0-4.4 1.4-6.4 5-4.4 8.2 1.9 3.1 7.1 4.5 11.5 3.2 25.2-8 54.2-8 79.5-0.1q0 0.1 0 0.1c29.8 9.3 63.9 9.3 93.7 0q0 0 0 0c25.3-8 54.3-8 79.6 0q0 0 0 0c29.7 9.3 63.9 9.3 93.6 0 25.3-8 54.3-8 79.6 0 29.7 9.3 63.8 9.3 93.6 0q0 0 0 0c25.3-8 54.3-8 79.6 0 29.7 9.3 63.8 9.3 93.6 0q0 0 0 0c25.3-8 54.3-8 79.6 0q0 0 0 0c29.8 9.3 63.9 9.3 93.6 0q0.1-0.1 0.1-0.1c25.3-7.9 54.3-7.9 79.5 0.1 4.4 1.3 9.6-0.1 11.5-3.2 2-3.2 0-6.8-4.4-8.2-14.9-4.7-30.9-7-46.9-7z"/>
			<path id="path1 copy 3" class="s0" d="m733 145.6c-15.9 0-31.9 2.3-46.8 7q0 0 0 0c-25.3 8-54.3 7.9-79.6 0q0 0 0 0c-29.7-9.3-63.8-9.3-93.6 0q0 0 0 0c-25.3 8-54.3 8-79.6 0-29.7-9.3-63.8-9.3-93.6 0q0 0 0 0c-25.3 8-54.3 8-79.6 0q0 0 0 0c-29.8-9.3-63.9-9.3-93.6 0-25.3 8-54.3 8-79.6 0q0 0 0 0c-29.8-9.3-63.9-9.3-93.6 0q0 0 0 0c-25.3 8-54.3 8-79.6 0q0 0 0 0c-29.8-9.3-63.9-9.3-93.7 0-4.4 1.4-6.4 5-4.4 8.2 1.9 3.1 7.1 4.5 11.5 3.2 25.3-8 54.3-8 79.5-0.1q0 0.1 0 0.1c29.8 9.3 63.9 9.3 93.7 0q0 0 0 0c25.3-8 54.3-8 79.6 0q0 0 0 0c29.7 9.3 63.9 9.3 93.6 0 25.3-8 54.3-8 79.6 0 29.7 9.3 63.9 9.3 93.6 0q0 0 0 0c25.3-8 54.3-8 79.6 0 29.7 9.3 63.8 9.3 93.6 0q0 0 0 0c25.3-8 54.3-8 79.6 0q0 0 0 0c29.8 9.3 63.9 9.3 93.7 0q0-0.1 0-0.1c25.3-7.9 54.3-7.9 79.5 0.1 4.4 1.3 9.6-0.1 11.5-3.2 2-3.2 0-6.8-4.4-8.2-14.9-4.7-30.9-7-46.9-7z"/>
			<path id="path1 copy 4" class="s0" d="m726.5 42.5c-16 0-31.9 2.4-46.8 7.1q-0.1 0-0.1 0c-25.3 7.9-54.2 7.9-79.5 0q0-0.1 0-0.1c-29.8-9.3-63.9-9.3-93.6 0q0 0-0.1 0.1c-25.2 7.9-54.2 7.9-79.5 0-29.8-9.4-63.9-9.4-93.6-0.1q0 0-0.1 0.1c-25.2 7.9-54.2 7.9-79.5 0q0 0 0-0.1c-29.8-9.3-63.9-9.3-93.7 0.1-25.3 7.9-54.3 7.9-79.6 0q0-0.1 0-0.1c-29.7-9.3-63.8-9.3-93.6 0q0 0 0 0.1c-25.3 7.9-54.3 7.9-79.5 0q0 0-0.1 0c-29.7-9.4-63.8-9.4-93.6 0-4.4 1.3-6.4 5-4.5 8.1 2 3.2 7.1 4.6 11.5 3.2 25.3-7.9 54.3-7.9 79.6 0q0 0 0 0c29.8 9.3 63.9 9.3 93.6 0q0 0 0 0c25.3-7.9 54.3-7.9 79.6 0q0 0 0 0c29.8 9.3 63.9 9.3 93.7 0 25.3-7.9 54.2-7.9 79.5 0 29.8 9.3 63.9 9.3 93.7 0q0 0 0 0c25.3-7.9 54.3-7.9 79.5 0 29.8 9.3 63.9 9.3 93.7 0q0 0 0 0c25.3-7.9 54.3-7.9 79.5 0q0.1 0 0.1 0c29.7 9.3 63.9 9.3 93.6 0q0 0 0.1 0c25.2-7.9 54.2-7.9 79.5 0 4.4 1.4 9.5 0 11.5-3.2 1.9-3.1-0.1-6.8-4.5-8.1-14.9-4.7-30.8-7.1-46.8-7.1z"/>
			<path id="path1 copy 5" class="s0" d="m769 527.6c-15.9 0-31.9 2.3-46.8 7q0 0-0.1 0c-25.2 8-54.2 7.9-79.5 0q0 0 0 0c-29.7-9.3-63.8-9.3-93.6 0q0 0 0 0c-25.3 8-54.3 8-79.6 0-29.7-9.3-63.8-9.3-93.6 0q0 0 0 0c-25.3 8-54.3 8-79.6 0q0 0 0 0c-29.8-9.3-63.9-9.3-93.6 0-25.3 8-54.3 8-79.6 0q0 0-0.1 0c-29.7-9.3-63.8-9.3-93.5 0q-0.1 0-0.1 0c-25.2 8-54.2 8-79.5 0q0 0 0 0c-29.8-9.3-63.9-9.3-93.7 0-4.4 1.4-6.4 5.1-4.4 8.2 1.9 3.1 7.1 4.5 11.5 3.2 25.2-8 54.2-8 79.5 0q0 0 0 0c29.8 9.3 63.9 9.3 93.7 0q0 0 0 0c25.3-8 54.3-8 79.6 0q0 0 0 0c29.7 9.3 63.9 9.3 93.6 0 25.3-8 54.3-8 79.6 0 29.7 9.3 63.8 9.3 93.6 0q0 0 0 0c25.3-8 54.3-8 79.6 0 29.7 9.3 63.8 9.3 93.6 0q0 0 0 0c25.3-8 54.3-8 79.6 0q0 0 0 0c29.8 9.3 63.9 9.3 93.6 0q0.1 0 0.1 0c25.3-8 54.3-8 79.5 0 4.4 1.3 9.6-0.1 11.5-3.2 2-3.1 0-6.8-4.4-8.2-14.9-4.7-30.9-7-46.9-7z"/>
		</g>
	</g>
</svg>